<svg id="Layer_1" data-name="Layer 1" xmlns="http://www.w3.org/2000/svg" viewBox="0 0 50 46" fill="white">
  <title>neural-magic-logo</title>
  <g>
    <polygon points="35.85 22.26 42.11 18.3 42.13 45.98 6.39 17.71 6.38 45.95 0.22 41.1 0.21 5.3 35.84 33.45 35.85 22.26"></polygon>
    <polygon points="34.35 22.47 7.12 0.93 1.55 4.4 34.36 30.4 34.35 22.47"></polygon>
    <polygon points="43.65 0 23.81 12.59 29.05 16.75 48.89 4.15 43.65 0"></polygon>
    <polygon points="7.82 20.68 7.8 46 14 42.06 14.01 25.6 7.82 20.68"></polygon>
    <polygon points="49.79 42.04 43.61 45.98 43.6 15.7 34.78 21.3 30.22 17.64 49.79 5.26 49.79 42.04"></polygon>
  </g>
</svg>
