<svg width="234" height="77" viewBox="0 0 234 77" fill="none" xmlns="http://www.w3.org/2000/svg">
<g clip-path="url(#clip0_173_91585)">
<path d="M71.2651 76C71.2714 75.7818 71.2838 75.5669 71.2838 75.3487C71.2838 59.2052 71.2807 43.065 71.2776 26.9216C71.2776 26.7067 71.2776 26.4885 71.2776 26.0944C66.856 29.0384 62.5308 31.9141 58.1776 34.8126C55.8037 32.8455 53.4547 30.898 51 28.8658C60.9834 22.2417 70.9047 15.6632 80.9441 9C80.9627 9.40057 80.9845 9.68065 80.9845 9.96073C80.9845 29.6572 80.9845 49.3537 81 69.0502C81 69.6722 80.8136 70.0142 80.304 70.3399C77.3211 72.2548 71.8648 75.6711 71.262 75.9935L71.2651 76Z" fill="black"/>
<path d="M80.4583 5.84394C79.6711 6.37613 78.9513 6.87096 78.2247 7.35621C68.8244 13.6211 59.4174 19.8763 50.0372 26.1667C49.3075 26.6553 48.8587 26.6496 48.1663 26.1003C46.0097 24.3891 43.7803 22.7641 41.4735 21.0272C42.7696 20.158 43.9889 19.336 45.2147 18.5172C54.1345 12.5562 63.0577 6.59842 71.9775 0.634214C72.2335 0.462387 72.8523 -0.0398258 73.2986 0.274752L80.4582 5.84069L80.4583 5.84394Z" fill="black"/>
<path d="M13.8 74.4003C13.3482 74.7188 13.254 74.7903 12.5 75.2778C12.5065 62.3655 12.513 48.5725 12.5195 35.6602C12.5195 35.3417 12.5195 35.0233 12.5195 34.5C13.2735 35.085 13.9008 35.5725 14.528 36.0568C17.076 38.0263 19.6305 39.9827 22.1557 41.9782C22.4222 42.1895 22.6465 42.6315 22.6465 42.9695C22.666 51.361 22.6465 59.7558 22.6562 68.1473C22.6562 68.6445 22.4807 68.924 22.0615 69.1775L13.8032 74.4003H13.8Z" fill="black"/>
<path d="M0.31192 9.33398C20.2214 25.1095 39.9749 40.7615 59.9104 56.5597C59.9104 56.0885 59.9104 55.8122 59.9104 55.536C59.9007 49.985 59.9039 44.434 59.8617 38.883C59.8552 38.194 60.0827 37.817 60.6514 37.4627C63.1994 35.8832 65.7214 34.2582 68.3409 32.591V74.8182C67.3562 74.0447 66.4299 73.3232 65.5069 72.592C52.8547 62.5885 40.0692 52.7475 27.6152 42.5067C21.9049 37.8105 15.9737 33.4067 10.2537 28.7332C9.99042 28.5155 9.70442 28.3237 9.29817 28.0182V74.7987C8.68067 74.3437 3.50017 70.343 0.86767 68.3052C0.45167 67.9835 0.32167 67.6552 0.32167 67.1482C0.33792 59.6732 0.33467 52.1982 0.33142 44.7265C0.32492 33.3255 0.31517 21.9245 0.30542 10.5235C0.30542 10.1985 0.30542 9.87673 0.30542 9.33398H0.31192Z" fill="black"/>
<path d="M2.57397 7.11423C5.09272 5.54773 7.49447 4.04623 9.90597 2.55773C11.7227 1.43648 11.7162 1.45923 13.3997 2.78848C24.4302 11.5147 35.4672 20.2377 46.501 28.9607C49.7477 31.5282 52.9945 34.0925 56.225 36.6795C56.4622 36.8712 56.7092 37.2287 56.7125 37.5082C56.745 41.5415 56.7385 45.5747 56.7385 49.608C56.7385 49.6827 56.7385 49.608 56.7385 49.998C38.7172 35.724 20.657 21.4435 2.57397 7.11423Z" fill="black"/>
<path d="M107.091 51.4313V63.3133H102.459V42.1981C103.717 42.1981 104.955 42.1721 106.194 42.2208C106.411 42.2306 106.681 42.5036 106.814 42.7213C109.161 46.5758 111.488 50.4433 113.821 54.3076C113.987 54.5838 114.166 54.8536 114.41 55.2403C114.605 54.9348 114.761 54.7041 114.904 54.4668C117.221 50.5636 119.528 46.6538 121.862 42.7603C122.011 42.5133 122.372 42.2598 122.645 42.2436C123.805 42.1851 124.969 42.2208 126.214 42.2208V63.3068H121.68V51.1258C121.605 51.1096 121.534 51.0966 121.459 51.0803C120.633 52.4583 119.808 53.8363 118.986 55.2176C117.936 56.9823 116.876 58.7406 115.849 60.5183C115.576 60.9896 115.258 61.1456 114.702 61.1911C113.639 61.2788 113.015 60.9473 112.463 59.9756C110.802 57.0701 109.008 54.2393 107.266 51.3793L107.091 51.4248V51.4313Z" fill="black"/>
<path d="M107.325 33.6636H102.437V12.4931C103.74 12.4931 105.053 12.4671 106.366 12.5191C106.587 12.5288 106.818 12.8668 107 13.0911C110.039 16.7896 113.068 20.4946 116.103 24.1996C116.337 24.4856 116.581 24.7683 116.977 25.2396V12.5321H121.813V33.7026C120.556 33.7026 119.295 33.7253 118.03 33.6798C117.822 33.6733 117.588 33.4068 117.426 33.2118C114.176 29.2696 110.932 25.3176 107.686 21.3688C107.621 21.2876 107.533 21.2226 107.325 21.0243V33.6603V33.6636Z" fill="black"/>
<path d="M177.281 27.7356V33.6571H172.334V12.5321C172.507 12.5158 172.689 12.4833 172.867 12.4833C175.874 12.4833 178.88 12.4638 181.883 12.4898C183.862 12.5093 185.731 12.9578 187.46 13.9751C191.769 16.5133 191.883 23.9331 187.268 26.4453C187.011 26.5851 186.755 26.7313 186.417 26.9198C187.967 29.1558 189.498 31.3593 191.119 33.7026C189.322 33.7026 187.707 33.7351 186.098 33.6701C185.815 33.6603 185.487 33.2866 185.286 33.0038C184.19 31.4633 183.111 29.9066 182.065 28.3303C181.776 27.8948 181.467 27.7063 180.944 27.7193C179.757 27.7486 178.571 27.7291 177.274 27.7291L177.281 27.7356ZM177.32 23.9396C179.231 23.8551 181.074 23.8843 182.884 23.6568C184.658 23.4326 185.663 22.0903 185.692 20.3158C185.724 18.4178 184.834 17.0236 183.059 16.7636C181.181 16.4873 179.26 16.5328 177.317 16.4353V23.9396H177.32Z" fill="black"/>
<path d="M127.28 33.67V12.5515H143.276V16.4483H132.259V21.0665H141.967V24.778H132.259V29.7083H143.702C143.702 30.9563 143.709 32.1133 143.702 33.2703C143.699 33.8455 143.247 33.6993 142.929 33.6993C139.922 33.7058 136.919 33.7058 133.913 33.7058C131.989 33.7058 130.068 33.7058 128.144 33.7058C127.878 33.7058 127.615 33.683 127.28 33.67Z" fill="black"/>
<path d="M169.348 52.468H173.826C173.843 52.7118 173.875 52.9425 173.875 53.1765C173.878 55.588 173.891 57.9963 173.862 60.4078C173.859 60.71 173.729 61.139 173.505 61.295C169.393 64.1843 162.087 65.0163 157.557 61.1553C154.177 58.2725 153.108 54.548 153.995 50.3198C154.898 46.02 157.736 43.3323 161.925 42.2825C166.049 41.249 169.991 41.7333 173.394 44.5998C173.703 44.8598 174.057 45.0645 174.454 45.3408C173.196 46.5075 172.172 47.4565 171.1 48.4478C169.988 47.255 168.669 46.5108 167.118 46.1825C163.066 45.3245 159.37 47.6743 158.821 51.558C158.447 54.2133 159.062 56.6345 161.363 58.2563C163.725 59.9203 166.325 59.904 168.932 58.812C169.137 58.7243 169.325 58.3245 169.328 58.0678C169.361 56.2315 169.348 54.3953 169.348 52.4713V52.468Z" fill="black"/>
<path d="M166.959 12.5452C166.959 17.0984 167.235 21.6127 166.884 26.0749C166.494 31.0442 163.264 33.8034 158.268 34.0212C156.933 34.0797 155.545 33.9627 154.248 33.6507C150.533 32.7602 148.093 29.8482 147.943 25.8474C147.781 21.4404 147.907 17.0237 147.907 12.5452H152.776C152.776 12.8117 152.776 13.0944 152.776 13.3804C152.776 16.9554 152.743 20.5304 152.795 24.1054C152.812 25.1194 152.981 26.1562 153.247 27.1377C153.598 28.4312 154.547 29.2242 155.824 29.6142C159.058 30.5989 161.622 28.9902 162.071 25.6784C162.152 25.0642 162.181 24.4369 162.181 23.8162C162.191 20.0819 162.188 16.3444 162.188 12.5452H166.962H166.959Z" fill="black"/>
<path d="M216.018 33.7091C214.315 33.7091 212.752 33.7286 211.188 33.6864C210.987 33.6799 210.714 33.3906 210.613 33.1664C210.103 32.0354 209.612 30.8946 209.173 29.7344C209.008 29.2924 208.774 29.1884 208.338 29.1884C205.468 29.2046 202.599 29.2079 199.732 29.1851C199.271 29.1819 199.063 29.3476 198.903 29.7506C198.448 30.9044 197.974 32.0516 197.464 33.1826C197.366 33.4004 197.08 33.6766 196.872 33.6831C195.364 33.7254 193.853 33.7059 192.195 33.7059C192.884 32.1556 193.521 30.7126 194.162 29.2729C196.56 23.8714 198.965 18.4731 201.354 13.0684C201.542 12.6426 201.77 12.4574 202.261 12.4704C203.665 12.5061 205.072 12.4834 206.521 12.4834C209.667 19.5196 212.807 26.5396 216.011 33.7091H216.018ZM204.055 17.3941C202.894 20.1826 201.815 22.7891 200.707 25.4541H207.392C206.291 22.7891 205.212 20.1859 204.058 17.3941H204.055Z" fill="black"/>
<path d="M152.675 63.3751C151.024 63.3751 149.484 63.3946 147.943 63.3524C147.738 63.3459 147.456 63.0631 147.358 62.8421C146.838 61.6851 146.354 60.5119 145.883 59.3321C145.723 58.9324 145.528 58.7569 145.06 58.7601C142.217 58.7861 139.376 58.7829 136.532 58.7601C136.074 58.7569 135.86 58.9129 135.7 59.3256C135.249 60.4826 134.745 61.6169 134.296 62.7739C134.127 63.2061 133.906 63.4044 133.409 63.3914C131.979 63.3556 130.546 63.3784 128.973 63.3784C129.464 62.2441 129.896 61.2139 130.351 60.1934C132.938 54.4019 135.535 48.6169 138.105 42.8189C138.31 42.3574 138.547 42.1656 139.064 42.1819C140.254 42.2209 141.446 42.2144 142.636 42.1819C143.101 42.1689 143.351 42.3086 143.549 42.7539C146.536 49.4651 149.542 56.1634 152.542 62.8681C152.594 62.9884 152.61 63.1216 152.675 63.3719V63.3751ZM140.806 47.0894C139.669 49.8259 138.603 52.3966 137.524 54.9934H144.079C142.993 52.3706 141.944 49.8356 140.806 47.0894Z" fill="black"/>
<path d="M204.99 48.5031C201.575 44.8339 196.765 45.8576 194.782 47.8921C192.39 50.3524 192.215 54.7724 194.464 57.3204C195.874 58.9161 197.684 59.5499 199.751 59.5336C201.848 59.5174 203.557 58.6366 204.955 57.0149C206.034 58.0126 207.057 58.9584 208.071 59.8976C205.881 63.1574 200.307 64.6296 195.608 63.2386C191.012 61.8801 187.928 57.8176 187.876 53.0531C187.817 47.9799 190.674 43.9596 195.432 42.4126C200.057 40.9111 205.731 42.3314 208.084 45.6334C207.07 46.5759 206.047 47.5249 204.99 48.5064V48.5031Z" fill="black"/>
<path d="M218.627 33.6408V12.5288H223.522V29.6206H234.104V33.6408H218.627Z" fill="black"/>
<path d="M178.877 42.2468H183.729V63.3101H178.877V42.2468Z" fill="black"/>
</g>
<defs>
<clipPath id="clip0_173_91585">
<rect width="234" height="76.375" fill="white"/>
</clipPath>
</defs>
</svg>
